<svg width="412" height="23" viewBox="0 0 412 23" fill="none" xmlns="http://www.w3.org/2000/svg">
<rect width="416" height="23" fill="#EDEBEB"/>
<path d="M203.543 16.1825C206.306 16.1825 208.5 13.8266 208.5 10.978C208.5 8.12939 206.306 5.77344 203.543 5.77344C200.78 5.77344 198.586 8.12939 198.586 10.978C198.586 13.8266 200.78 16.1825 203.543 16.1825Z" fill="#173B89" stroke="black"/>
<path d="M221.371 16.1825C224.134 16.1825 226.329 13.8266 226.329 10.978C226.329 8.12939 224.134 5.77344 221.371 5.77344C218.609 5.77344 216.414 8.12939 216.414 10.978C216.414 13.8266 218.609 16.1825 221.371 16.1825Z" fill="#FBFCFE" stroke="black"/>
<path d="M238.21 16.1825C240.972 16.1825 243.167 13.8266 243.167 10.978C243.167 8.12939 240.972 5.77344 238.21 5.77344C235.447 5.77344 233.252 8.12939 233.252 10.978C233.252 13.8266 235.447 16.1825 238.21 16.1825Z" fill="white" stroke="#0E0000"/>
<path d="M186.705 16.1825C189.468 16.1825 191.662 13.8266 191.662 10.978C191.662 8.12939 189.468 5.77344 186.705 5.77344C183.942 5.77344 181.748 8.12939 181.748 10.978C181.748 13.8266 183.942 16.1825 186.705 16.1825Z" fill="#FBFCFF" stroke="black"/>
<path d="M168.876 16.1825C171.639 16.1825 173.833 13.8266 173.833 10.978C173.833 8.12939 171.639 5.77344 168.876 5.77344C166.113 5.77344 163.919 8.12939 163.919 10.978C163.919 13.8266 166.113 16.1825 168.876 16.1825Z" fill="#FBFCFF" stroke="black"/>
</svg>
